<?xml version="1.0" encoding="UTF-8" standalone="no"?>
<!DOCTYPE svg PUBLIC "-//W3C//DTD SVG 1.1//EN" "http://www.w3.org/Graphics/SVG/1.1/DTD/svg11.dtd">
<svg fill="#fff" width="100%" height="100%" viewBox="0 0 1920 1080" version="1.1" xmlns="http://www.w3.org/2000/svg" xmlns:xlink="http://www.w3.org/1999/xlink" xml:space="preserve" xmlns:serif="http://www.serif.com/" style="fill-rule:evenodd;clip-rule:evenodd;stroke-linejoin:round;stroke-miterlimit:2;">
    <g transform="matrix(1,0,0,1,-1540.05,245.557)">
        <g transform="matrix(1,0,0,1,1539.56,-1269.37)">
            <g opacity="0.55">
                <g transform="matrix(1,0,0,1,-9.1,838)">
                    <g transform="matrix(1,0,0,1,4.5,-6)">
                        <path d="M201,59.5C201,34.388 180.612,14 155.5,14L64.5,14C39.388,14 19,34.388 19,59.5L19,150.5C19,175.612 39.388,196 64.5,196L155.5,196C180.612,196 201,175.612 201,150.5L201,59.5Z"/>
                    </g>
                    <g transform="matrix(1,0,0,1,1523.79,-6)">
                        <path d="M201,59.5C201,34.388 180.612,14 155.5,14L64.5,14C39.388,14 19,34.388 19,59.5L19,150.5C19,175.612 39.388,196 64.5,196L155.5,196C180.612,196 201,175.612 201,150.5L201,59.5Z"/>
                    </g>
                    <g transform="matrix(1,0,0,1,1713.7,-6)">
                        <path d="M201,59.5C201,34.388 180.612,14 155.5,14L64.5,14C39.388,14 19,34.388 19,59.5L19,150.5C19,175.612 39.388,196 64.5,196L155.5,196C180.612,196 201,175.612 201,150.5L201,59.5Z"/>
                    </g>
                    <g transform="matrix(1,0,0,1,1333.88,-6)">
                        <path d="M201,59.5C201,34.388 180.612,14 155.5,14L64.5,14C39.388,14 19,34.388 19,59.5L19,150.5C19,175.612 39.388,196 64.5,196L155.5,196C180.612,196 201,175.612 201,150.5L201,59.5Z"/>
                    </g>
                    <g transform="matrix(1,0,0,1,1143.97,-6)">
                        <path d="M201,59.5C201,34.388 180.612,14 155.5,14L64.5,14C39.388,14 19,34.388 19,59.5L19,150.5C19,175.612 39.388,196 64.5,196L155.5,196C180.612,196 201,175.612 201,150.5L201,59.5Z"/>
                    </g>
                    <g transform="matrix(1,0,0,1,954.056,-6)">
                        <path d="M201,59.5C201,34.388 180.612,14 155.5,14L64.5,14C39.388,14 19,34.388 19,59.5L19,150.5C19,175.612 39.388,196 64.5,196L155.5,196C180.612,196 201,175.612 201,150.5L201,59.5Z"/>
                    </g>
                    <g transform="matrix(1,0,0,1,764.144,-6)">
                        <path d="M201,59.5C201,34.388 180.612,14 155.5,14L64.5,14C39.388,14 19,34.388 19,59.5L19,150.5C19,175.612 39.388,196 64.5,196L155.5,196C180.612,196 201,175.612 201,150.5L201,59.5Z"/>
                    </g>
                    <g transform="matrix(1,0,0,1,574.233,-6)">
                        <path d="M201,59.5C201,34.388 180.612,14 155.5,14L64.5,14C39.388,14 19,34.388 19,59.5L19,150.5C19,175.612 39.388,196 64.5,196L155.5,196C180.612,196 201,175.612 201,150.5L201,59.5Z"/>
                    </g>
                    <g transform="matrix(1,0,0,1,384.322,-6)">
                        <path d="M201,59.5C201,34.388 180.612,14 155.5,14L64.5,14C39.388,14 19,34.388 19,59.5L19,150.5C19,175.612 39.388,196 64.5,196L155.5,196C180.612,196 201,175.612 201,150.5L201,59.5Z"/>
                    </g>
                    <g transform="matrix(1,0,0,1,194.411,-6)">
                        <path d="M201,59.5C201,34.388 180.612,14 155.5,14L64.5,14C39.388,14 19,34.388 19,59.5L19,150.5C19,175.612 39.388,196 64.5,196L155.5,196C180.612,196 201,175.612 201,150.5L201,59.5Z"/>
                    </g>
                </g>
            </g>
        </g>
        <g transform="matrix(1,0,0,1,1540.05,-223.557)">
            <g opacity="0.55">
                <g transform="matrix(1,0,0,1,-9.1,0)">
                    <g transform="matrix(1,0,0,1,4.5,-6)">
                        <path d="M201,59.5C201,34.388 180.612,14 155.5,14L64.5,14C39.388,14 19,34.388 19,59.5L19,150.5C19,175.612 39.388,196 64.5,196L155.5,196C180.612,196 201,175.612 201,150.5L201,59.5Z"/>
                    </g>
                    <g transform="matrix(1,0,0,1,1523.79,-6)">
                        <path d="M201,59.5C201,34.388 180.612,14 155.5,14L64.5,14C39.388,14 19,34.388 19,59.5L19,150.5C19,175.612 39.388,196 64.5,196L155.5,196C180.612,196 201,175.612 201,150.5L201,59.5Z"/>
                    </g>
                    <g transform="matrix(1,0,0,1,1713.7,-6)">
                        <path d="M201,59.5C201,34.388 180.612,14 155.5,14L64.5,14C39.388,14 19,34.388 19,59.5L19,150.5C19,175.612 39.388,196 64.5,196L155.5,196C180.612,196 201,175.612 201,150.5L201,59.5Z"/>
                    </g>
                    <g transform="matrix(1,0,0,1,1333.88,-6)">
                        <path d="M201,59.5C201,34.388 180.612,14 155.5,14L64.5,14C39.388,14 19,34.388 19,59.5L19,150.5C19,175.612 39.388,196 64.5,196L155.5,196C180.612,196 201,175.612 201,150.5L201,59.5Z"/>
                    </g>
                    <g transform="matrix(1,0,0,1,1143.97,-6)">
                        <path d="M201,59.5C201,34.388 180.612,14 155.5,14L64.5,14C39.388,14 19,34.388 19,59.5L19,150.5C19,175.612 39.388,196 64.5,196L155.5,196C180.612,196 201,175.612 201,150.5L201,59.5Z"/>
                    </g>
                    <g transform="matrix(1,0,0,1,954.056,-6)">
                        <path d="M201,59.5C201,34.388 180.612,14 155.5,14L64.5,14C39.388,14 19,34.388 19,59.5L19,150.5C19,175.612 39.388,196 64.5,196L155.5,196C180.612,196 201,175.612 201,150.5L201,59.5Z"/>
                    </g>
                    <g transform="matrix(1,0,0,1,764.144,-6)">
                        <path d="M201,59.5C201,34.388 180.612,14 155.5,14L64.5,14C39.388,14 19,34.388 19,59.5L19,150.5C19,175.612 39.388,196 64.5,196L155.5,196C180.612,196 201,175.612 201,150.5L201,59.5Z"/>
                    </g>
                    <g transform="matrix(1,0,0,1,574.233,-6)">
                        <path d="M201,59.5C201,34.388 180.612,14 155.5,14L64.5,14C39.388,14 19,34.388 19,59.5L19,150.5C19,175.612 39.388,196 64.5,196L155.5,196C180.612,196 201,175.612 201,150.5L201,59.5Z"/>
                    </g>
                    <g transform="matrix(1,0,0,1,384.322,-6)">
                        <path d="M201,59.5C201,34.388 180.612,14 155.5,14L64.5,14C39.388,14 19,34.388 19,59.5L19,150.5C19,175.612 39.388,196 64.5,196L155.5,196C180.612,196 201,175.612 201,150.5L201,59.5Z"/>
                    </g>
                    <g transform="matrix(1,0,0,1,194.411,-6)">
                        <path d="M201,59.5C201,34.388 180.612,14 155.5,14L64.5,14C39.388,14 19,34.388 19,59.5L19,150.5C19,175.612 39.388,196 64.5,196L155.5,196C180.612,196 201,175.612 201,150.5L201,59.5Z"/>
                    </g>
                </g>
                <g transform="matrix(1,0,0,1,-9.1,209.5)">
                    <g transform="matrix(1,0,0,1,4.5,-6)">
                        <path d="M201,59.5C201,34.388 180.612,14 155.5,14L64.5,14C39.388,14 19,34.388 19,59.5L19,150.5C19,175.612 39.388,196 64.5,196L155.5,196C180.612,196 201,175.612 201,150.5L201,59.5Z"/>
                    </g>
                    <g transform="matrix(1,0,0,1,1523.79,-6)">
                        <path d="M201,59.5C201,34.388 180.612,14 155.5,14L64.5,14C39.388,14 19,34.388 19,59.5L19,150.5C19,175.612 39.388,196 64.5,196L155.5,196C180.612,196 201,175.612 201,150.5L201,59.5Z"/>
                    </g>
                    <g transform="matrix(1,0,0,1,1713.7,-6)">
                        <path d="M201,59.5C201,34.388 180.612,14 155.5,14L64.5,14C39.388,14 19,34.388 19,59.5L19,150.5C19,175.612 39.388,196 64.5,196L155.5,196C180.612,196 201,175.612 201,150.5L201,59.5Z"/>
                    </g>
                    <g transform="matrix(1,0,0,1,1333.88,-6)">
                        <path d="M201,59.5C201,34.388 180.612,14 155.5,14L64.5,14C39.388,14 19,34.388 19,59.5L19,150.5C19,175.612 39.388,196 64.5,196L155.5,196C180.612,196 201,175.612 201,150.5L201,59.5Z"/>
                    </g>
                    <g transform="matrix(1,0,0,1,1143.97,-6)">
                        <path d="M201,59.5C201,34.388 180.612,14 155.5,14L64.5,14C39.388,14 19,34.388 19,59.5L19,150.5C19,175.612 39.388,196 64.5,196L155.5,196C180.612,196 201,175.612 201,150.5L201,59.5Z"/>
                    </g>
                    <g transform="matrix(1,0,0,1,954.056,-6)">
                        <path d="M201,59.5C201,34.388 180.612,14 155.5,14L64.5,14C39.388,14 19,34.388 19,59.5L19,150.5C19,175.612 39.388,196 64.5,196L155.5,196C180.612,196 201,175.612 201,150.5L201,59.5Z"/>
                    </g>
                    <g transform="matrix(1,0,0,1,764.144,-6)">
                        <path d="M201,59.5C201,34.388 180.612,14 155.5,14L64.5,14C39.388,14 19,34.388 19,59.5L19,150.5C19,175.612 39.388,196 64.5,196L155.5,196C180.612,196 201,175.612 201,150.5L201,59.5Z"/>
                    </g>
                    <g transform="matrix(1,0,0,1,574.233,-6)">
                        <path d="M201,59.5C201,34.388 180.612,14 155.5,14L64.5,14C39.388,14 19,34.388 19,59.5L19,150.5C19,175.612 39.388,196 64.5,196L155.5,196C180.612,196 201,175.612 201,150.5L201,59.5Z"/>
                    </g>
                    <g transform="matrix(1,0,0,1,384.322,-6)">
                        <path d="M201,59.5C201,34.388 180.612,14 155.5,14L64.5,14C39.388,14 19,34.388 19,59.5L19,150.5C19,175.612 39.388,196 64.5,196L155.5,196C180.612,196 201,175.612 201,150.5L201,59.5Z"/>
                    </g>
                    <g transform="matrix(1,0,0,1,194.411,-6)">
                        <path d="M201,59.5C201,34.388 180.612,14 155.5,14L64.5,14C39.388,14 19,34.388 19,59.5L19,150.5C19,175.612 39.388,196 64.5,196L155.5,196C180.612,196 201,175.612 201,150.5L201,59.5Z"/>
                    </g>
                </g>
                <g transform="matrix(1,0,0,1,-9.1,419)">
                    <g transform="matrix(1,0,0,1,4.5,-6)">
                        <path d="M201,59.5C201,34.388 180.612,14 155.5,14L64.5,14C39.388,14 19,34.388 19,59.5L19,150.5C19,175.612 39.388,196 64.5,196L155.5,196C180.612,196 201,175.612 201,150.5L201,59.5Z"/>
                    </g>
                    <g transform="matrix(1,0,0,1,1523.79,-6)">
                        <path d="M201,59.5C201,34.388 180.612,14 155.5,14L64.5,14C39.388,14 19,34.388 19,59.5L19,150.5C19,175.612 39.388,196 64.5,196L155.5,196C180.612,196 201,175.612 201,150.5L201,59.5Z"/>
                    </g>
                    <g transform="matrix(1,0,0,1,1713.7,-6)">
                        <path d="M201,59.5C201,34.388 180.612,14 155.5,14L64.5,14C39.388,14 19,34.388 19,59.5L19,150.5C19,175.612 39.388,196 64.5,196L155.5,196C180.612,196 201,175.612 201,150.5L201,59.5Z"/>
                    </g>
                    <g transform="matrix(1,0,0,1,1333.88,-6)">
                        <path d="M201,59.5C201,34.388 180.612,14 155.5,14L64.5,14C39.388,14 19,34.388 19,59.5L19,150.5C19,175.612 39.388,196 64.5,196L155.5,196C180.612,196 201,175.612 201,150.5L201,59.5Z"/>
                    </g>
                    <g transform="matrix(1,0,0,1,1143.97,-6)">
                        <path d="M201,59.5C201,34.388 180.612,14 155.5,14L64.5,14C39.388,14 19,34.388 19,59.5L19,150.5C19,175.612 39.388,196 64.5,196L155.5,196C180.612,196 201,175.612 201,150.5L201,59.5Z"/>
                    </g>
                    <g transform="matrix(1,0,0,1,954.056,-6)">
                        <path d="M201,59.5C201,34.388 180.612,14 155.5,14L64.5,14C39.388,14 19,34.388 19,59.5L19,150.5C19,175.612 39.388,196 64.5,196L155.5,196C180.612,196 201,175.612 201,150.5L201,59.5Z"/>
                    </g>
                    <g transform="matrix(1,0,0,1,764.144,-6)">
                        <path d="M201,59.5C201,34.388 180.612,14 155.5,14L64.5,14C39.388,14 19,34.388 19,59.5L19,150.5C19,175.612 39.388,196 64.5,196L155.5,196C180.612,196 201,175.612 201,150.5L201,59.5Z"/>
                    </g>
                    <g transform="matrix(1,0,0,1,574.233,-6)">
                        <path d="M201,59.5C201,34.388 180.612,14 155.5,14L64.5,14C39.388,14 19,34.388 19,59.5L19,150.5C19,175.612 39.388,196 64.5,196L155.5,196C180.612,196 201,175.612 201,150.5L201,59.5Z"/>
                    </g>
                    <g transform="matrix(1,0,0,1,384.322,-6)">
                        <path d="M201,59.5C201,34.388 180.612,14 155.5,14L64.5,14C39.388,14 19,34.388 19,59.5L19,150.5C19,175.612 39.388,196 64.5,196L155.5,196C180.612,196 201,175.612 201,150.5L201,59.5Z"/>
                    </g>
                    <g transform="matrix(1,0,0,1,194.411,-6)">
                        <path d="M201,59.5C201,34.388 180.612,14 155.5,14L64.5,14C39.388,14 19,34.388 19,59.5L19,150.5C19,175.612 39.388,196 64.5,196L155.5,196C180.612,196 201,175.612 201,150.5L201,59.5Z"/>
                    </g>
                </g>
                <g transform="matrix(1,0,0,1,-9.1,628.5)">
                    <g transform="matrix(1,0,0,1,4.5,-6)">
                        <path d="M201,59.5C201,34.388 180.612,14 155.5,14L64.5,14C39.388,14 19,34.388 19,59.5L19,150.5C19,175.612 39.388,196 64.5,196L155.5,196C180.612,196 201,175.612 201,150.5L201,59.5Z"/>
                    </g>
                    <g transform="matrix(1,0,0,1,1523.79,-6)">
                        <path d="M201,59.5C201,34.388 180.612,14 155.5,14L64.5,14C39.388,14 19,34.388 19,59.5L19,150.5C19,175.612 39.388,196 64.5,196L155.5,196C180.612,196 201,175.612 201,150.5L201,59.5Z"/>
                    </g>
                    <g transform="matrix(1,0,0,1,1713.7,-6)">
                        <path d="M201,59.5C201,34.388 180.612,14 155.5,14L64.5,14C39.388,14 19,34.388 19,59.5L19,150.5C19,175.612 39.388,196 64.5,196L155.5,196C180.612,196 201,175.612 201,150.5L201,59.5Z"/>
                    </g>
                    <g transform="matrix(1,0,0,1,1333.88,-6)">
                        <path d="M201,59.5C201,34.388 180.612,14 155.5,14L64.5,14C39.388,14 19,34.388 19,59.5L19,150.5C19,175.612 39.388,196 64.5,196L155.5,196C180.612,196 201,175.612 201,150.5L201,59.5Z"/>
                    </g>
                    <g transform="matrix(1,0,0,1,1143.97,-6)">
                        <path d="M201,59.5C201,34.388 180.612,14 155.5,14L64.5,14C39.388,14 19,34.388 19,59.5L19,150.5C19,175.612 39.388,196 64.5,196L155.5,196C180.612,196 201,175.612 201,150.5L201,59.5Z"/>
                    </g>
                    <g transform="matrix(1,0,0,1,954.056,-6)">
                        <path d="M201,59.5C201,34.388 180.612,14 155.5,14L64.5,14C39.388,14 19,34.388 19,59.5L19,150.5C19,175.612 39.388,196 64.5,196L155.5,196C180.612,196 201,175.612 201,150.5L201,59.5Z"/>
                    </g>
                    <g transform="matrix(1,0,0,1,764.144,-6)">
                        <path d="M201,59.5C201,34.388 180.612,14 155.5,14L64.5,14C39.388,14 19,34.388 19,59.5L19,150.5C19,175.612 39.388,196 64.5,196L155.5,196C180.612,196 201,175.612 201,150.5L201,59.5Z"/>
                    </g>
                    <g transform="matrix(1,0,0,1,574.233,-6)">
                        <path d="M201,59.5C201,34.388 180.612,14 155.5,14L64.5,14C39.388,14 19,34.388 19,59.5L19,150.5C19,175.612 39.388,196 64.5,196L155.5,196C180.612,196 201,175.612 201,150.5L201,59.5Z"/>
                    </g>
                    <g transform="matrix(1,0,0,1,384.322,-6)">
                        <path d="M201,59.5C201,34.388 180.612,14 155.5,14L64.5,14C39.388,14 19,34.388 19,59.5L19,150.5C19,175.612 39.388,196 64.5,196L155.5,196C180.612,196 201,175.612 201,150.5L201,59.5Z"/>
                    </g>
                    <g transform="matrix(1,0,0,1,194.411,-6)">
                        <path d="M201,59.5C201,34.388 180.612,14 155.5,14L64.5,14C39.388,14 19,34.388 19,59.5L19,150.5C19,175.612 39.388,196 64.5,196L155.5,196C180.612,196 201,175.612 201,150.5L201,59.5Z"/>
                    </g>
                </g>
                <g transform="matrix(1,0,0,1,-9.1,838)">
                    <g transform="matrix(1,0,0,1,4.5,-6)">
                        <path d="M201,59.5C201,34.388 180.612,14 155.5,14L64.5,14C39.388,14 19,34.388 19,59.5L19,150.5C19,175.612 39.388,196 64.5,196L155.5,196C180.612,196 201,175.612 201,150.5L201,59.5Z"/>
                    </g>
                    <g transform="matrix(1,0,0,1,1523.79,-6)">
                        <path d="M201,59.5C201,34.388 180.612,14 155.5,14L64.5,14C39.388,14 19,34.388 19,59.5L19,150.5C19,175.612 39.388,196 64.5,196L155.5,196C180.612,196 201,175.612 201,150.5L201,59.5Z"/>
                    </g>
                    <g transform="matrix(1,0,0,1,1713.7,-6)">
                        <path d="M201,59.5C201,34.388 180.612,14 155.5,14L64.5,14C39.388,14 19,34.388 19,59.5L19,150.5C19,175.612 39.388,196 64.5,196L155.5,196C180.612,196 201,175.612 201,150.5L201,59.5Z"/>
                    </g>
                    <g transform="matrix(1,0,0,1,1333.88,-6)">
                        <path d="M201,59.5C201,34.388 180.612,14 155.5,14L64.5,14C39.388,14 19,34.388 19,59.5L19,150.5C19,175.612 39.388,196 64.5,196L155.5,196C180.612,196 201,175.612 201,150.5L201,59.5Z"/>
                    </g>
                    <g transform="matrix(1,0,0,1,1143.97,-6)">
                        <path d="M201,59.5C201,34.388 180.612,14 155.5,14L64.5,14C39.388,14 19,34.388 19,59.5L19,150.5C19,175.612 39.388,196 64.5,196L155.5,196C180.612,196 201,175.612 201,150.5L201,59.5Z"/>
                    </g>
                    <g transform="matrix(1,0,0,1,954.056,-6)">
                        <path d="M201,59.5C201,34.388 180.612,14 155.5,14L64.5,14C39.388,14 19,34.388 19,59.5L19,150.5C19,175.612 39.388,196 64.5,196L155.5,196C180.612,196 201,175.612 201,150.5L201,59.5Z"/>
                    </g>
                    <g transform="matrix(1,0,0,1,764.144,-6)">
                        <path d="M201,59.5C201,34.388 180.612,14 155.5,14L64.5,14C39.388,14 19,34.388 19,59.5L19,150.5C19,175.612 39.388,196 64.5,196L155.5,196C180.612,196 201,175.612 201,150.5L201,59.5Z"/>
                    </g>
                    <g transform="matrix(1,0,0,1,574.233,-6)">
                        <path d="M201,59.5C201,34.388 180.612,14 155.5,14L64.5,14C39.388,14 19,34.388 19,59.5L19,150.5C19,175.612 39.388,196 64.5,196L155.5,196C180.612,196 201,175.612 201,150.5L201,59.5Z"/>
                    </g>
                    <g transform="matrix(1,0,0,1,384.322,-6)">
                        <path d="M201,59.5C201,34.388 180.612,14 155.5,14L64.5,14C39.388,14 19,34.388 19,59.5L19,150.5C19,175.612 39.388,196 64.5,196L155.5,196C180.612,196 201,175.612 201,150.5L201,59.5Z"/>
                    </g>
                    <g transform="matrix(1,0,0,1,194.411,-6)">
                        <path d="M201,59.5C201,34.388 180.612,14 155.5,14L64.5,14C39.388,14 19,34.388 19,59.5L19,150.5C19,175.612 39.388,196 64.5,196L155.5,196C180.612,196 201,175.612 201,150.5L201,59.5Z"/>
                    </g>
                </g>
            </g>
        </g>
        <g transform="matrix(1,0,0,1,1540.54,822.254)">
            <g opacity="0.55">
                <g transform="matrix(1,0,0,1,-9.1,0)">
                    <g transform="matrix(1,0,0,1,4.5,-6)">
                        <path d="M201,59.5C201,34.388 180.612,14 155.5,14L64.5,14C39.388,14 19,34.388 19,59.5L19,150.5C19,175.612 39.388,196 64.5,196L155.5,196C180.612,196 201,175.612 201,150.5L201,59.5Z"/>
                    </g>
                    <g transform="matrix(1,0,0,1,1523.79,-6)">
                        <path d="M201,59.5C201,34.388 180.612,14 155.5,14L64.5,14C39.388,14 19,34.388 19,59.5L19,150.5C19,175.612 39.388,196 64.5,196L155.5,196C180.612,196 201,175.612 201,150.5L201,59.5Z"/>
                    </g>
                    <g transform="matrix(1,0,0,1,1713.7,-6)">
                        <path d="M201,59.5C201,34.388 180.612,14 155.5,14L64.5,14C39.388,14 19,34.388 19,59.5L19,150.5C19,175.612 39.388,196 64.5,196L155.5,196C180.612,196 201,175.612 201,150.5L201,59.5Z"/>
                    </g>
                    <g transform="matrix(1,0,0,1,1333.88,-6)">
                        <path d="M201,59.5C201,34.388 180.612,14 155.5,14L64.5,14C39.388,14 19,34.388 19,59.5L19,150.5C19,175.612 39.388,196 64.5,196L155.5,196C180.612,196 201,175.612 201,150.5L201,59.5Z"/>
                    </g>
                    <g transform="matrix(1,0,0,1,1143.97,-6)">
                        <path d="M201,59.5C201,34.388 180.612,14 155.5,14L64.5,14C39.388,14 19,34.388 19,59.5L19,150.5C19,175.612 39.388,196 64.5,196L155.5,196C180.612,196 201,175.612 201,150.5L201,59.5Z"/>
                    </g>
                    <g transform="matrix(1,0,0,1,954.056,-6)">
                        <path d="M201,59.5C201,34.388 180.612,14 155.5,14L64.5,14C39.388,14 19,34.388 19,59.5L19,150.5C19,175.612 39.388,196 64.5,196L155.5,196C180.612,196 201,175.612 201,150.5L201,59.5Z"/>
                    </g>
                    <g transform="matrix(1,0,0,1,764.144,-6)">
                        <path d="M201,59.5C201,34.388 180.612,14 155.5,14L64.5,14C39.388,14 19,34.388 19,59.5L19,150.5C19,175.612 39.388,196 64.5,196L155.5,196C180.612,196 201,175.612 201,150.5L201,59.5Z"/>
                    </g>
                    <g transform="matrix(1,0,0,1,574.233,-6)">
                        <path d="M201,59.5C201,34.388 180.612,14 155.5,14L64.5,14C39.388,14 19,34.388 19,59.5L19,150.5C19,175.612 39.388,196 64.5,196L155.5,196C180.612,196 201,175.612 201,150.5L201,59.5Z"/>
                    </g>
                    <g transform="matrix(1,0,0,1,384.322,-6)">
                        <path d="M201,59.5C201,34.388 180.612,14 155.5,14L64.5,14C39.388,14 19,34.388 19,59.5L19,150.5C19,175.612 39.388,196 64.5,196L155.5,196C180.612,196 201,175.612 201,150.5L201,59.5Z"/>
                    </g>
                    <g transform="matrix(1,0,0,1,194.411,-6)">
                        <path d="M201,59.5C201,34.388 180.612,14 155.5,14L64.5,14C39.388,14 19,34.388 19,59.5L19,150.5C19,175.612 39.388,196 64.5,196L155.5,196C180.612,196 201,175.612 201,150.5L201,59.5Z"/>
                    </g>
                </g>
            </g>
        </g>
    </g>
</svg>
